<?xml version="1.0" encoding="UTF-8"?>
<svg version="1.1" xmlns="http://www.w3.org/2000/svg" width="733" height="631">
<path d="M0 0 C241.89 0 483.78 0 733 0 C733 208.23 733 416.46 733 631 C491.11 631 249.22 631 0 631 C0 422.77 0 214.54 0 0 Z " fill="#151515" transform="translate(0,0)"/>
<path d="M0 0 C10.51431543 6.41735804 17.01747621 15.27090057 20.765625 26.8828125 C21.08402344 27.79804687 21.40242187 28.71328125 21.73046875 29.65625 C26.31032968 45.40084102 24.62771963 63.94203229 21.765625 79.8828125 C21.49105469 81.708125 21.49105469 81.708125 21.2109375 83.5703125 C19.28202966 95.38189629 15.6421894 106.58036174 11.765625 117.8828125 C11.37632812 119.02105469 10.98703125 120.15929687 10.5859375 121.33203125 C-4.81665457 163.43619717 -29.83660998 203.65588291 -60.1796875 236.64453125 C-62.11540103 238.75320777 -63.99257476 240.90067578 -65.859375 243.0703125 C-74.18858418 252.6170163 -74.18858418 252.6170163 -78.28778076 255.15332031 C-80.85271047 257.43218552 -80.83122638 258.7145872 -81.05566406 262.09765625 C-81.13544495 263.16306641 -81.21522583 264.22847656 -81.29742432 265.32617188 C-81.36427429 266.47923828 -81.43112427 267.63230469 -81.5 268.8203125 C-81.58312439 270.01076172 -81.66624878 271.20121094 -81.75189209 272.42773438 C-82.01363989 276.24514469 -82.24883533 280.063705 -82.484375 283.8828125 C-82.65721515 286.42589318 -82.83167555 288.96886429 -83.0078125 291.51171875 C-83.71294183 301.98255613 -84.37344025 312.38355052 -84.234375 322.8828125 C-83.95376221 322.17809814 -83.67314941 321.47338379 -83.3840332 320.74731445 C-72.58505582 293.85150541 -58.39404252 268.87772813 -42.234375 244.8828125 C-41.64414551 243.99835449 -41.05391602 243.11389648 -40.44580078 242.20263672 C-26.87587553 221.87251843 -10.4319546 197.43461413 11.765625 185.8828125 C12.37664062 185.56441406 12.98765625 185.24601563 13.6171875 184.91796875 C20.24561177 181.95836368 27.613407 181.62315086 34.546875 183.7265625 C41.62170977 186.88040451 45.88566097 191.46392797 48.90234375 198.5546875 C50.0134119 202.83808147 50.10503355 206.78638795 50.078125 211.1953125 C50.07538574 212.13101074 50.07264648 213.06670898 50.06982422 214.03076172 C49.87031088 228.36132321 48.2145858 242.63592383 46.765625 256.8828125 C46.56175654 258.94003063 46.3585469 260.99731424 46.15625 263.0546875 C45.84238457 266.23507616 45.52255551 269.41471283 45.1953125 272.59375 C45.09198608 273.63801147 45.09198608 273.63801147 44.98657227 274.70336914 C44.83394343 276.20891352 44.66962218 277.71330208 44.49584961 279.21655273 C43.62386777 287.39011619 43.57949847 295.54097502 43.58032227 303.75170898 C43.57813845 306.18035496 43.55992548 308.6085434 43.54101562 311.03710938 C43.20980357 332.36291724 43.20980357 332.36291724 52.390625 350.8828125 C57.53884696 355.21815731 63.29767646 354.380347 69.765625 353.8828125 C91.49600084 349.20288245 109.56398992 329.52645805 122.765625 312.8828125 C123.52617188 311.93921875 124.28671875 310.995625 125.0703125 310.0234375 C140.09289518 291.0112509 152.34767963 270.0295716 164.53515625 249.140625 C164.94080811 248.45081543 165.34645996 247.76100586 165.7644043 247.05029297 C166.79514559 245.29537381 167.81605105 243.5346872 168.8359375 241.7734375 C170.88819726 238.69920223 172.96548915 236.29550817 175.765625 233.8828125 C179.31262127 233.39357163 181.56640367 233.18649044 184.703125 235.0078125 C186.26205344 237.7588627 186.00979351 239.74658287 185.765625 242.8828125 C184.51904297 245.87695313 184.51904297 245.87695313 182.7578125 249.0390625 C182.44068298 249.614785 182.12355347 250.19050751 181.79681396 250.78367615 C180.75834519 252.65802279 179.70067524 254.52059826 178.640625 256.3828125 C177.91039353 257.68418536 177.18041562 258.98570053 176.45068359 260.28735352 C167.16293578 276.75457094 157.07337925 292.72441103 145.765625 307.8828125 C145.17152832 308.68307861 145.17152832 308.68307861 144.56542969 309.49951172 C128.5616217 330.98169484 111.00176372 350.68359535 86.765625 362.8828125 C85.71375 363.41261719 84.661875 363.94242187 83.578125 364.48828125 C72.49295662 369.24477778 57.49867557 370.65290927 45.90234375 366.80859375 C34.71646983 361.62073609 27.41666981 352.34828589 22.61328125 341.2109375 C17.15202172 326.29036428 16.26772551 310.66216881 16.453125 294.9453125 C16.46314216 293.25415091 16.47306969 291.5629888 16.48291016 289.87182617 C16.57245403 279.59536035 17.12267304 269.53385518 18.47460938 259.34375 C22.90257564 235.01633232 22.90257564 235.01633232 19.4765625 212.01171875 C17.06016401 210.4173371 14.77914903 210.28838973 11.93359375 210.41796875 C7.68586071 211.32874394 4.90136734 214.00646061 1.765625 216.8828125 C0.981875 217.59824219 0.198125 218.31367188 -0.609375 219.05078125 C-7.25932524 225.42018671 -12.84525734 232.45306892 -18.234375 239.8828125 C-18.93949219 240.85476563 -19.64460938 241.82671875 -20.37109375 242.828125 C-32.38470825 259.83815958 -43.06610795 277.72659019 -53.43701172 295.76904297 C-55.26250681 298.93154832 -57.10745377 302.08199549 -58.95703125 305.23046875 C-64.20695977 314.20056778 -69.41160868 323.17054985 -74.15234375 332.421875 C-74.63037949 333.35416176 -74.63037949 333.35416176 -75.11807251 334.30528259 C-76.65286776 337.30869142 -78.16935449 340.31932001 -79.66796875 343.34106445 C-80.209375 344.41573975 -80.75078125 345.49041504 -81.30859375 346.59765625 C-81.77869873 347.54761475 -82.24880371 348.49757324 -82.7331543 349.47631836 C-84.73861796 352.69112651 -86.7615603 354.46652498 -90.41796875 355.5 C-94.22077826 355.93498341 -96.5871671 356.15822012 -100.171875 354.6328125 C-105.23417299 350.33752935 -105.561879 344.63495121 -106.796875 338.4453125 C-107.01794922 337.45337891 -107.23902344 336.46144531 -107.46679688 335.43945312 C-112.26346617 311.39814088 -110.44292775 285.46492519 -110.421875 261.0078125 C-110.42146084 260.23066769 -110.42104668 259.45352287 -110.42061996 258.65282822 C-110.38467027 204.65594883 -105.98544577 153.31373769 -92.234375 100.8828125 C-91.86907483 99.45981924 -91.5044192 98.03666026 -91.140625 96.61328125 C-82.196048 62.16944643 -68.92523254 21.31439771 -36.3828125 2.05078125 C-25.16130816 -4.04963657 -11.82810379 -5.91405189 0 0 Z " fill="#57B7FB" transform="translate(485.234375,80.1171875)"/>
<path d="M0 0 C4.13760197 1.7599175 7.15095093 3.96522144 10 7.4375 C12.17244757 13.0043969 10.69406648 17.55607261 8.65625 22.9609375 C8.28932793 23.94867912 8.28932793 23.94867912 7.91499329 24.95637512 C7.39046915 26.36626155 6.86176651 27.77459931 6.32925415 29.18148804 C4.92027981 32.90845409 3.54652438 36.64841912 2.16796875 40.38671875 C1.89248703 41.13131851 1.61700531 41.87591827 1.33317566 42.64308167 C-12.39542153 79.81987541 -23.15470765 117.78649958 -29 157 C-29.16661133 158.06831055 -29.33322266 159.13662109 -29.50488281 160.23730469 C-33.70021634 187.52000157 -37.86646762 227.28017593 -23 252 C-19.4923142 256.75823742 -19.4923142 256.75823742 -14.0625 258.5 C-5.78537692 258.29435719 1.07823338 251.2394698 6.4375 245.625 C41.75704119 206.17036438 63.39982482 151.6096809 82.8125 103.0625 C83.24336914 101.98564941 83.67423828 100.90879883 84.11816406 99.79931641 C87.2330906 91.98671284 90.25783759 84.14321781 93.23266602 76.27636719 C95.6475105 69.89688031 98.13448725 63.55193613 100.70703125 57.234375 C101.5131495 55.21786168 102.28733409 53.18792065 103.01171875 51.140625 C105.27713624 44.83186743 108.73965046 38.13017477 115 35 C122.35007441 34.50168987 127.2274127 35.63174835 133 40.5625 C137.54764827 48.37877047 132.96519972 59.05359683 131.0390625 67.42578125 C129.84585912 72.62845116 128.79693465 77.85520543 127.7734375 83.09375 C127.23597013 85.80823167 126.68109326 88.51345631 126.1015625 91.21875 C114.63541471 145.39484324 102.683093 217.5411825 133.890625 266.99609375 C145.67914022 284.24320406 161.81004883 296.2484056 182.515625 300.5234375 C187.44367664 301.19745353 192.38034468 301.45729333 197.35302734 301.53466797 C202.51242874 301.68035935 202.51242874 301.68035935 204.99609375 303.30859375 C206 305 206 305 205.9375 308.5625 C205 312 205 312 203.31787109 313.19604492 C200.43899122 314.19458626 198.02485845 314.27606034 194.9765625 314.30078125 C193.79739258 314.31036865 192.61822266 314.31995605 191.40332031 314.32983398 C160.74497854 314.18918121 139.28116648 305.25075454 117.5234375 283.52734375 C109.67327447 275.23206838 103.67562271 265.40127933 99 255 C98.61328125 254.16855469 98.2265625 253.33710938 97.828125 252.48046875 C82.3903556 217.65019273 81.44769803 177.37089177 85 140 C84.69707031 140.89460937 84.39414062 141.78921875 84.08203125 142.7109375 C81.86408354 149.11227581 79.52300292 155.25637761 76.37109375 161.265625 C74.66911378 164.65988705 73.1824442 168.13651917 71.6875 171.625 C61.95980324 194.07292575 50.2164346 216.07268996 36 236 C35.27683594 237.01578125 34.55367187 238.0315625 33.80859375 239.078125 C6.88476913 275.87562413 6.88476913 275.87562413 -13.19970703 279.38427734 C-23.30376833 280.49124909 -31.80783612 279.44358437 -40 273 C-52.74553526 262.5535718 -57.94631918 247.44001982 -62 232 C-62.21785156 231.19433594 -62.43570313 230.38867188 -62.66015625 229.55859375 C-69.32817196 202.73835278 -64.63524715 170.98068194 -60.33154297 144.16162109 C-59.81331856 140.78285903 -59.40633663 137.39387833 -59 134 C-59.37769531 134.49886719 -59.75539063 134.99773437 -60.14453125 135.51171875 C-72.61450447 151.77817094 -86.36908989 169.11435254 -104 180 C-104.83917969 180.52207031 -105.67835937 181.04414063 -106.54296875 181.58203125 C-112.28368542 184.81285319 -117.42782402 186.23301001 -124 185 C-127.125 183.4375 -127.125 183.4375 -129 181 C-129.62109375 177.69921875 -129.62109375 177.69921875 -129 174 C-126.6459121 171.59647309 -123.83445589 170.0533673 -120.9375 168.375 C-85.12641638 146.06825408 -58.71182643 107.43259438 -40.89257812 69.87939453 C-40.00785655 68.0165426 -39.10664624 66.16238706 -38.203125 64.30859375 C-31.49667806 50.41047413 -26.17444472 36.03567941 -21.484375 21.34326172 C-13.65904031 -2.8840879 -13.65904031 -2.8840879 0 0 Z " fill="#57B7FB" transform="translate(192,165)"/>
<path d="M0 0 C5.44894516 4.02368726 8.50738786 9.11380057 10.1953125 15.62109375 C10.51018541 18.72942548 10.52686974 21.81109364 10.5078125 24.93359375 C10.50507324 25.86929199 10.50233398 26.80499023 10.49951172 27.76904297 C10.29999838 42.09960446 8.6442733 56.37420508 7.1953125 70.62109375 C6.99144404 72.67831188 6.7882344 74.73559549 6.5859375 76.79296875 C6.27207207 79.97335741 5.95224301 83.15299408 5.625 86.33203125 C5.55611572 87.02820557 5.48723145 87.72437988 5.41625977 88.44165039 C5.26363093 89.94719477 5.09930968 91.45158333 4.92553711 92.95483398 C4.05355527 101.12839744 4.00918597 109.27925627 4.01000977 117.48999023 C4.00782595 119.91863621 3.98961298 122.34682465 3.97070312 124.77539062 C3.63949107 146.10119849 3.63949107 146.10119849 12.8203125 164.62109375 C17.96853446 168.95643856 23.72736396 168.11862825 30.1953125 167.62109375 C51.92568834 162.9411637 69.99367742 143.2647393 83.1953125 126.62109375 C83.95585938 125.6775 84.71640625 124.73390625 85.5 123.76171875 C100.52258268 104.74953215 112.77736713 83.76785285 124.96484375 62.87890625 C125.37049561 62.18909668 125.77614746 61.49928711 126.1940918 60.78857422 C127.22483309 59.03365506 128.24573855 57.27296845 129.265625 55.51171875 C131.31788476 52.43748348 133.39517665 50.03378942 136.1953125 47.62109375 C139.74230877 47.13185288 141.99609117 46.92477169 145.1328125 48.74609375 C146.69174094 51.49714395 146.43948101 53.48486412 146.1953125 56.62109375 C144.94873047 59.61523438 144.94873047 59.61523438 143.1875 62.77734375 C142.71180573 63.64092751 142.71180573 63.64092751 142.22650146 64.5219574 C141.18803269 66.39630404 140.13036274 68.25887951 139.0703125 70.12109375 C138.34008103 71.42246661 137.61010312 72.72398178 136.88037109 74.02563477 C127.59262328 90.49285219 117.50306675 106.46269228 106.1953125 121.62109375 C105.60121582 122.42135986 105.60121582 122.42135986 104.99511719 123.23779297 C88.9913092 144.71997609 71.43145122 164.4218766 47.1953125 176.62109375 C46.1434375 177.15089844 45.0915625 177.68070313 44.0078125 178.2265625 C32.92264412 182.98305903 17.92836307 184.39119052 6.33203125 180.546875 C-4.85384267 175.35901734 -12.15364269 166.08656714 -16.95703125 154.94921875 C-22.41829078 140.02864553 -23.30258699 124.40045006 -23.1171875 108.68359375 C-23.10717034 106.99243216 -23.09724281 105.30127005 -23.08740234 103.61010742 C-22.99785847 93.3336416 -22.44763946 83.27213643 -21.09570312 73.08203125 C-16.66773686 48.75461357 -16.66773686 48.75461357 -20.09375 25.75 C-22.51014849 24.15561835 -24.79116347 24.02667098 -27.63671875 24.15625 C-31.88445179 25.06702519 -34.66894516 27.74474186 -37.8046875 30.62109375 C-38.5884375 31.33652344 -39.3721875 32.05195313 -40.1796875 32.7890625 C-51.23504015 43.37801746 -60.55747444 56.38418325 -68.5234375 69.4375 C-69.02875 70.26121094 -69.5340625 71.08492188 -70.0546875 71.93359375 C-70.47234375 72.65160156 -70.89 73.36960937 -71.3203125 74.109375 C-72.8046875 75.62109375 -72.8046875 75.62109375 -75.4765625 75.8515625 C-76.24484375 75.77550781 -77.013125 75.69945312 -77.8046875 75.62109375 C-77.8046875 73.97109375 -77.8046875 72.32109375 -77.8046875 70.62109375 C-79.1659375 71.88953125 -79.1659375 71.88953125 -80.5546875 73.18359375 C-83.47494233 75.64712626 -83.47494233 75.64712626 -86.1796875 75.43359375 C-86.7159375 75.16546875 -87.2521875 74.89734375 -87.8046875 74.62109375 C-86.79500892 71.90272834 -85.76515211 69.56027007 -84.1796875 67.12109375 C-82.59655021 64.74903963 -82.59655021 64.74903963 -82.89038086 62.24462891 C-82.7852508 59.02603155 -81.91549686 57.74685277 -80.05859375 55.14453125 C-79.47295654 54.31421387 -78.88731934 53.48389648 -78.28393555 52.62841797 C-77.33514526 51.32541748 -77.33514526 51.32541748 -76.3671875 49.99609375 C-75.72628174 49.10035645 -75.08537598 48.20461914 -74.42504883 47.28173828 C-62.01313827 30.06526755 -46.98785216 9.60416924 -27.8046875 -0.37890625 C-27.19367188 -0.69730469 -26.58265625 -1.01570313 -25.953125 -1.34375 C-17.3796192 -5.17183798 -8.10837918 -4.60170072 0 0 Z " fill="#57B7FB" transform="translate(524.8046875,266.37890625)"/>
<path d="M0 0 C6.88244134 4.68006011 8.89957898 12.21756356 11 20 C16.47015631 52.61580699 7.48965361 85.93122737 -5.25 115.75 C-5.73670166 116.89178711 -6.22340332 118.03357422 -6.72485352 119.20996094 C-10.50150609 127.99125361 -14.51201821 136.56299052 -19 145 C-19.41266113 145.78665039 -19.82532227 146.57330078 -20.25048828 147.38378906 C-31.45988069 168.69747974 -43.89015799 189.46971041 -58 209 C-58.42958008 209.59570801 -58.85916016 210.19141602 -59.30175781 210.80517578 C-66.52067308 220.76033654 -66.52067308 220.76033654 -69 222 C-69.25376229 212.40583359 -68.31449771 202.97325235 -67.375 193.4375 C-67.28830048 192.5488324 -67.20160095 191.66016479 -67.11227417 190.74456787 C-63.51280682 154.24675612 -58.23632296 117.52613849 -49 82 C-48.7019043 80.85144531 -48.40380859 79.70289063 -48.09667969 78.51953125 C-40.83476464 50.80406686 -40.83476464 50.80406686 -35 38 C-34.40029202 36.60839574 -33.80137645 35.2164498 -33.203125 33.82421875 C-27.38260656 20.57573686 -17.37833334 -2.02747222 0 0 Z " fill="#151616" transform="translate(475,98)"/>
</svg>
